<?xml version="1.0" encoding="UTF-8"?>
<svg width="156px" height="62px" viewBox="0 0 156 62" version="1.1" xmlns="http://www.w3.org/2000/svg" xmlns:xlink="http://www.w3.org/1999/xlink">
    <!-- Generator: Sketch 49.3 (51167) - http://www.bohemiancoding.com/sketch -->
    <title>Logo EPI</title>
    <desc>Created with Sketch.</desc>
    <defs></defs>
    <g id="Symbols" stroke="none" stroke-width="1" fill="none" fill-rule="evenodd">
        <g id="Header" transform="translate(-154.000000, -48.000000)">
            <g id="Logo-EPI" transform="translate(154.000000, 48.000000)">
                <g id="Group-20" stroke-width="1" fill-rule="evenodd">
                    <g id="epi_Q_Horizontal"></g>
                </g>
                <path d="M23.7568714,34.8603834 L8.24375687,34.8225721 L8.24375687,34.6360361 C8.24375687,27.9831276 10.6367206,27.7178179 14.9577509,27.7178179 L17.7081828,27.7178179 C21.9626198,27.7178179 23.7568714,28.1835278 23.7568714,34.6360361 L23.7568714,34.8603834 Z M19.4358411,21 L13.1622428,21 C4.85314905,21 0,25.6552084 0,33.0391364 L0,42.6236854 C0,51.8030228 4.18847181,54.0647721 12.4981938,53.9986023 C22.7353542,53.9986023 29.5171981,53.2814469 29.5171981,53.2814469 L29.5171981,47.146554 L13.7603267,47.146554 C9.04162086,47.146554 8.24375687,47.0142143 8.24375687,41.6922656 L8.24375687,41.5120315 L28.4259463,41.5120315 C28.4259463,41.5120315 32,41.7288166 32,38.0970357 L32,33.0391364 C32,25.6552084 27.8115282,21 19.4358411,21 Z" id="Fill-1" fill="#BF1F45" fill-rule="evenodd"></path>
                <path d="M56.5554751,41.9205112 C56.5554751,45.9708802 55.2079035,46.4407708 50.8350528,47.0433882 L41.4438813,47.0433882 L41.4438813,30.5594747 C44.5039115,29.6983231 47.9680845,28.2427316 50.8923278,28.2376993 C54.9343992,28.2471348 56.5554751,29.2529649 56.5554751,33.3486246 L56.5554751,41.9205112 Z M52.4020714,21 L52.2707893,21 C48.6624635,21 44.4395576,22.0574111 41.4438813,23.518664 L41.4438813,21.3315025 L34.1879739,21.3315025 C32.9214882,21.3755351 33.008366,22.4329462 33.008366,22.4329462 L33,22.4329462 L33,62 L41.4438813,62 L41.4438813,53.0783688 C46.7929814,54.01815 52.4020714,54.171006 52.4020714,54.171006 C60.777094,54.1049571 65,52.2121849 65,43.1817303 L65,32.0207275 C65,22.9254821 60.777094,21.0647908 52.4020714,21 Z" id="Fill-2" fill="#BF1F45" fill-rule="evenodd"></path>
                <path d="M69,21.9332702 L69,54 L76,54 L76,21 L70.0339939,21 C69.2032774,21 69.0330793,21.6143125 69,21.9332702" id="Fill-3" fill="#BF1F45" fill-rule="evenodd"></path>
                <path d="M78.8093017,8.85033056 C71.2628637,-10.1343885 29.3065192,5.83820982 7.23380605,15.8305257 C7.23380605,15.8305257 5.83441619,16.416233 6.01631152,16.8031961 C6.23876887,17.2799346 7.57985082,16.7406629 7.57985082,16.7406629 C59.0422861,-3.07989647 73.853763,3.90649005 78.0988325,9.07879357 L78.1013676,9.07879357 C78.1013676,9.07879357 79.4975885,10.7566655 78.8093017,8.85033056" id="Fill-5" fill="#BF1F45" fill-rule="evenodd"></path>
                <path d="M69,10 L69.0196286,20 L79,20 C79,14.476731 74.5216669,10 69,10" id="Fill-7" fill="#BF1F45" fill-rule="evenodd"></path>
                <text id="Intranet" font-family="Calibri" font-size="20" font-weight="normal" fill="#AA0242">
                    <tspan x="91" y="53">Intranet</tspan>
                </text>
            </g>
        </g>
    </g>
</svg>