<?xml version="1.0" encoding="UTF-8"?>
<svg width="150px" height="58px" viewBox="0 0 150 58" version="1.1" xmlns="http://www.w3.org/2000/svg" xmlns:xlink="http://www.w3.org/1999/xlink">
    <!-- Generator: Sketch 50.2 (55047) - http://www.bohemiancoding.com/sketch -->
    <title>Logo EPI</title>
    <desc>Created with Sketch.</desc>
    <defs></defs>
    <g id="Page-1" stroke="none" stroke-width="1" fill="none" fill-rule="evenodd">
        <g id="Logo-EPI">
            <g id="Group-20" stroke-width="1" fill-rule="evenodd">
                <g id="epi_Q_Horizontal"></g>
            </g>
            <path d="M22.2903978,32.6113264 L7.73488299,32.5759545 L7.73488299,32.4014531 C7.73488299,26.1777646 9.9801329,25.9295716 14.0344329,25.9295716 L16.6150851,25.9295716 C20.6069025,25.9295716 22.2903978,26.3652357 22.2903978,32.4014531 L22.2903978,32.6113264 Z M18.2360978,19.6451613 L12.3497587,19.6451613 C4.55357195,19.6451613 0,24.0000336 0,30.9075792 L0,39.8737702 C0,48.4608923 3.92992417,50.5767223 11.7267004,50.5148215 C21.3319372,50.5148215 27.6951488,49.8439342 27.6951488,49.8439342 L27.6951488,44.1048409 L12.9109238,44.1048409 C8.48349611,44.1048409 7.73488299,43.9810392 7.73488299,39.002442 L7.73488299,38.8338359 L26.6712582,38.8338359 C26.6712582,38.8338359 30.0246914,39.0366349 30.0246914,35.6391624 L30.0246914,30.9075792 C30.0246914,24.0000336 26.0947672,19.6451613 18.2360978,19.6451613 Z" id="Fill-1" fill="#BF1F45" fill-rule="evenodd"></path>
            <path d="M53.0643964,39.2159621 C53.0643964,43.005017 51.8000082,43.444592 47.6970866,44.0083309 L38.8856171,44.0083309 L38.8856171,28.5878957 C41.7567565,27.7823022 45.0070916,26.4206198 47.7508261,26.4159122 C51.5433869,26.424739 53.0643964,27.3656769 53.0643964,31.1971004 L53.0643964,39.2159621 Z M49.1673756,19.6451613 L49.0441974,19.6451613 C45.6586078,19.6451613 41.696375,20.6343523 38.8856171,22.0013308 L38.8856171,19.9552765 L32.0776051,19.9552765 C30.8892976,19.9964683 30.9708126,20.9856593 30.9708126,20.9856593 L30.962963,20.9856593 L30.962963,58 L38.8856171,58 L38.8856171,49.6539579 C43.9045258,50.5331081 49.1673756,50.6761024 49.1673756,50.6761024 C57.0254215,50.6143147 60.9876543,48.8436568 60.9876543,40.3958122 L60.9876543,29.9548741 C60.9876543,21.4464188 57.0254215,19.705772 49.1673756,19.6451613 Z" id="Fill-2" fill="#BF1F45" fill-rule="evenodd"></path>
            <path d="M64.7407407,20.5182205 L64.7407407,50.516129 L71.308642,50.516129 L71.308642,19.6451613 L65.7109079,19.6451613 C64.9314702,19.6451613 64.7717781,20.2198407 64.7407407,20.5182205" id="Fill-3" fill="#BF1F45" fill-rule="evenodd"></path>
            <path d="M73.94453,8.27934149 C66.8639215,-9.48055697 27.4974748,5.46155112 6.78727481,14.8092014 C6.78727481,14.8092014 5.47426704,15.3571212 5.64493426,15.7191189 C5.85365968,16.1651001 7.1119588,15.6606201 7.1119588,15.6606201 C55.3977006,-2.88119347 69.2948888,3.65445843 73.2779169,8.49306495 L73.2802955,8.49306495 C73.2802955,8.49306495 74.59033,10.0626871 73.94453,8.27934149" id="Fill-5" fill="#BF1F45" fill-rule="evenodd"></path>
            <path d="M64.7407407,9.35483871 L64.7591577,18.7096774 L74.1234568,18.7096774 C74.1234568,13.5427483 69.921564,9.35483871 64.7407407,9.35483871" id="Fill-7" fill="#BF1F45" fill-rule="evenodd"></path>
            <text id="Intranet" font-family="Calibri" font-size="20" font-weight="normal" fill="#AA0242">
                <tspan x="85.382716" y="50.0322581">Intranet</tspan>
            </text>
        </g>
    </g>
</svg>